<svg xmlns="http://www.w3.org/2000/svg" viewBox="0 0 128 128">
  <defs>
    <linearGradient id="g" x1="20" y1="16" x2="108" y2="112" gradientUnits="userSpaceOnUse">
      <stop offset="0" stop-color="#006B58"/>
      <stop offset="1" stop-color="#1C7C6A"/>
    </linearGradient>
  </defs>
  <rect x="12" y="12" width="104" height="104" rx="28" fill="url(#g)"/>
  <path
    d="M40 84V44h14.6c6.2 0 10.8 1.3 13.8 4 3.1 2.7 4.6 6.7 4.6 12s-1.5 9.3-4.6 12c-3 2.7-7.6 4-13.8 4H52v8H40Zm12-18h2.9c2.9 0 5-.6 6.4-1.8 1.4-1.2 2.1-3.1 2.1-5.6s-.7-4.4-2.1-5.6c-1.4-1.2-3.5-1.8-6.4-1.8H52v16.8Z"
    fill="#fff"
    opacity=".95"
  />
</svg>
