<svg xmlns="http://www.w3.org/2000/svg" viewBox="0 0 64 64" fill="none">
  <defs>
    <linearGradient id="g" x1="12" y1="10" x2="54" y2="54" gradientUnits="userSpaceOnUse">
      <stop stop-color="#074f66" />
      <stop offset="1" stop-color="#0a6b88" />
    </linearGradient>
  </defs>
  <rect x="6" y="6" width="52" height="52" rx="18" fill="url(#g)" />
  <path
    d="M24 26v-3a8 8 0 1 1 16 0v3h3a5 5 0 0 1 5 5v16a5 5 0 0 1-5 5H21a5 5 0 0 1-5-5V31a5 5 0 0 1 5-5h3Zm4 0h8v-3a4 4 0 1 0-8 0v3Zm2 6v4h-4v4h4v4h4v-4h4v-4h-4v-4h-4Z"
    fill="#fff"
  />
</svg>
